<svg id="Layer_1" data-name="Layer 1" xmlns="http://www.w3.org/2000/svg" xmlns:xlink="http://www.w3.org/1999/xlink" viewBox="0 0 512 512"><defs><linearGradient id="linear-gradient" x1="256" x2="256" y2="512" gradientUnits="userSpaceOnUse"><stop offset="0" stop-color="#e9ebf5"/><stop offset="0.76" stop-color="#b0c7e1"/><stop offset="1" stop-color="#7697c6"/></linearGradient><linearGradient id="linear-gradient-2" x1="256" y1="423.66" x2="256" y2="88.35" gradientUnits="userSpaceOnUse"><stop offset="0" stop-color="#000013"/><stop offset="1" stop-color="#005c92"/></linearGradient></defs><title>warning</title><path d="M256,512c141,0,256-115,256-256S397,0,256,0,0,115,0,256,115,512,256,512Z" fill-rule="evenodd" fill="url(#linear-gradient)"/><path d="M245.22,88.35C337.8,88.35,412.9,163.43,412.9,256A167.68,167.68,0,0,1,245.22,423.66C152.68,423.66,77.57,348.6,77.57,256S152.68,88.35,245.22,88.35ZM271.61,202.7a177.82,177.82,0,0,0,1-19c0-8.61-.82-18.74-4.67-26.54-4.25-8.63-12.59-11.87-21.79-11.87-8,0-15.16,2.61-20.62,8.49-5.76,6.14-7.76,14.11-7.76,22.36,0,9.27.67,18.79,1.23,28l4.4,66,0,.12c.68,6.75,1.86,14.93,4.69,21.17,3.11,6.72,9,10.1,16.38,10.1A17.49,17.49,0,0,0,261,291.41c3-6.29,4.22-14.13,4.73-21l5.91-67.7Zm-26.27,164a27.82,27.82,0,0,0,18.88-7.17c5.89-5.2,8.44-12.29,8.44-20.07a26.3,26.3,0,0,0-8.1-19.31,27.07,27.07,0,0,0-19.47-7.86,27,27,0,0,0-27.27,27.17c0,7.85,2.51,15,8.53,20.18A28.53,28.53,0,0,0,245.34,366.75Z" fill="#fff" fill-rule="evenodd"/><path d="M256,88.35A167.66,167.66,0,1,1,88.34,256c0-92.57,75.11-167.66,167.65-167.66ZM282.38,202.7a177.82,177.82,0,0,0,1-19c0-8.61-.84-18.74-4.68-26.54-4.25-8.63-12.59-11.87-21.78-11.87-8,0-15.16,2.61-20.62,8.49-5.76,6.14-7.76,14.11-7.76,22.36,0,9.27.67,18.79,1.23,28l4.4,66,0,.12c.67,6.75,1.86,14.93,4.69,21.17,3.11,6.72,9,10.1,16.38,10.1a17.48,17.48,0,0,0,16.42-10.13c3-6.29,4.23-14.13,4.73-21l5.91-67.7Zm-26.27,164A27.83,27.83,0,0,0,275,359.58c5.89-5.2,8.45-12.29,8.45-20.07a26.33,26.33,0,0,0-8.1-19.31,27.08,27.08,0,0,0-19.47-7.86,27,27,0,0,0-27.27,27.17c0,7.85,2.51,15,8.53,20.18A28.52,28.52,0,0,0,256.11,366.75Z" fill-rule="evenodd" fill="url(#linear-gradient-2)"/></svg>